<svg width="28" height="28" viewBox="0 0 28 28" fill="none" xmlns="http://www.w3.org/2000/svg">
<path d="M18.9986 2.42052e-07C17.5933 -0.000322055 16.2074 0.328566 14.9521 0.960309C13.6968 1.59205 12.6069 2.50908 11.7698 3.63792C10.9327 4.76675 10.3716 6.07599 10.1315 7.46074C9.89138 8.84548 9.97897 10.2672 10.3872 11.612L0 22V28H5.99955L16.3868 17.612C17.6246 17.9878 18.9289 18.0922 20.2107 17.9183C21.4925 17.7443 22.7218 17.2961 23.8147 16.604C24.9077 15.912 25.8386 14.9925 26.544 13.9081C27.2495 12.8237 27.7129 11.6 27.9026 10.3203C28.0924 9.04065 28.0041 7.7351 27.6437 6.49264C27.2833 5.25019 26.6593 4.10003 25.8143 3.12056C24.9692 2.14109 23.923 1.35532 22.7468 0.816811C21.5706 0.278299 20.2922 -0.000299774 18.9986 2.42052e-07ZM18.9986 16C18.3101 15.9998 17.6255 15.898 16.9667 15.698L15.8198 15.35L14.9729 16.197L11.7921 19.378L10.4132 18L8.99933 19.414L10.3782 20.793L8.79234 22.379L7.41345 21L5.99955 22.414L7.37845 23.793L5.17161 26H1.99985V22.828L11.8011 13.026L12.6491 12.179L12.3011 11.032C11.8737 9.62299 11.9015 8.11508 12.3804 6.72277C12.8594 5.33045 13.7652 4.12463 14.9689 3.27683C16.1727 2.42902 17.6131 1.98242 19.0853 2.00053C20.5575 2.01864 21.9865 2.50056 23.169 3.37772C24.3515 4.25488 25.2273 5.48262 25.6719 6.8863C26.1165 8.28998 26.1072 9.79812 25.6452 11.1962C25.1833 12.5942 24.2923 13.8111 23.099 14.6735C21.9057 15.5359 20.4709 16.0001 18.9986 16Z" fill="white"/>
<path d="M19.9986 10C21.1031 10 21.9985 9.10457 21.9985 8C21.9985 6.89543 21.1031 6 19.9986 6C18.8941 6 17.9988 6.89543 17.9988 8C17.9988 9.10457 18.8941 10 19.9986 10Z" fill="white"/>
</svg>
