<svg width="30" height="30" viewBox="0 0 30 30" fill="none" xmlns="http://www.w3.org/2000/svg">
<path d="M15.0043 15.9192C14.4024 15.9212 13.818 16.0916 13.3408 16.4042C12.8636 16.7167 12.5201 17.1542 12.3632 17.6493C12.2062 18.1443 12.2444 18.6696 12.4719 19.1444C12.6994 19.6192 13.1036 20.0172 13.6224 20.2772V23.6156H16.4199V20.2772C16.8303 20.0703 17.171 19.7764 17.4087 19.4242C17.6464 19.0719 17.7731 18.6733 17.7765 18.2669C17.7765 17.9574 17.7047 17.6509 17.5652 17.3652C17.4256 17.0794 17.2212 16.82 16.9635 16.6018C16.7059 16.3836 16.4001 16.2109 16.0639 16.0938C15.7277 15.9767 15.3675 15.9173 15.0043 15.9192Z" stroke="white" stroke-linecap="round" stroke-linejoin="round"/>
<path d="M25.3599 10.5273H4.64008C2.62972 10.5273 1 11.9159 1 13.6289V25.8986C1 27.6115 2.62972 29.0002 4.64008 29.0002H25.3599C27.3703 29.0002 29 27.6115 29 25.8986V13.6289C29 11.9159 27.3703 10.5273 25.3599 10.5273Z" stroke="white" stroke-linecap="round" stroke-linejoin="round"/>
<path d="M6.03052 10.5272V8.65333C6.03052 6.62354 6.97686 4.67689 8.66136 3.24161C10.3459 1.80633 12.6305 1 15.0128 1C17.395 1 19.6797 1.80633 21.3642 3.24161C23.0487 4.67689 23.995 6.62354 23.995 8.65333V10.5272" stroke="white" stroke-linecap="round" stroke-linejoin="round"/>
</svg>
