<svg width="150" height="90" viewBox="0 0 150 90" fill="none" xmlns="http://www.w3.org/2000/svg">
<path d="M71.806 28.661C73.444 28.661 74.887 28.999 76.135 29.675C77.383 30.351 78.345 31.313 79.021 32.561C79.723 33.783 80.074 35.2 80.074 36.812C80.074 38.398 79.723 39.802 79.021 41.024C78.319 42.246 77.318 43.195 76.018 43.871C74.744 44.521 73.262 44.846 71.572 44.846H65.332C65.202 44.846 65.137 44.911 65.137 45.041V55.532C65.137 55.662 65.085 55.779 64.981 55.883C64.903 55.961 64.799 56 64.669 56H61.081C60.951 56 60.834 55.961 60.73 55.883C60.652 55.779 60.613 55.662 60.613 55.532V29.129C60.613 28.999 60.652 28.895 60.73 28.817C60.834 28.713 60.951 28.661 61.081 28.661H71.806ZM71.143 41.18C72.469 41.18 73.535 40.79 74.341 40.01C75.147 39.23 75.55 38.203 75.55 36.929C75.55 35.629 75.147 34.576 74.341 33.77C73.535 32.964 72.469 32.561 71.143 32.561H65.332C65.202 32.561 65.137 32.626 65.137 32.756V40.985C65.137 41.115 65.202 41.18 65.332 41.18H71.143ZM99.2535 56C98.9935 56 98.8245 55.87 98.7465 55.61L97.4595 51.437C97.4075 51.333 97.3425 51.281 97.2645 51.281H86.9685C86.8905 51.281 86.8255 51.333 86.7735 51.437L85.4865 55.61C85.4085 55.87 85.2395 56 84.9795 56H81.0795C80.9235 56 80.8065 55.961 80.7285 55.883C80.6505 55.779 80.6375 55.636 80.6895 55.454L89.1525 29.09C89.2305 28.83 89.3995 28.7 89.6595 28.7H94.5345C94.7945 28.7 94.9635 28.83 95.0415 29.09L103.543 55.454C103.569 55.506 103.582 55.571 103.582 55.649C103.582 55.883 103.439 56 103.153 56H99.2535ZM87.9825 47.498C87.9565 47.654 88.0085 47.732 88.1385 47.732H96.0555C96.2115 47.732 96.2635 47.654 96.2115 47.498L92.1945 34.433C92.1685 34.329 92.1295 34.277 92.0775 34.277C92.0255 34.277 91.9865 34.329 91.9605 34.433L87.9825 47.498ZM114.831 56.312C112.803 56.312 111.035 55.987 109.527 55.337C108.019 54.687 106.849 53.777 106.017 52.607C105.211 51.437 104.808 50.059 104.808 48.473V47.498C104.808 47.368 104.847 47.264 104.925 47.186C105.029 47.082 105.146 47.03 105.276 47.03H108.747C108.877 47.03 108.981 47.082 109.059 47.186C109.163 47.264 109.215 47.368 109.215 47.498V48.239C109.215 49.435 109.748 50.436 110.814 51.242C111.88 52.022 113.336 52.412 115.182 52.412C116.768 52.412 117.964 52.074 118.77 51.398C119.576 50.722 119.979 49.851 119.979 48.785C119.979 48.057 119.758 47.446 119.316 46.952C118.874 46.432 118.237 45.964 117.405 45.548C116.599 45.132 115.377 44.612 113.739 43.988C111.893 43.312 110.398 42.675 109.254 42.077C108.11 41.479 107.148 40.673 106.368 39.659C105.614 38.619 105.237 37.332 105.237 35.798C105.237 33.51 106.069 31.703 107.733 30.377C109.397 29.051 111.62 28.388 114.402 28.388C116.352 28.388 118.068 28.726 119.55 29.402C121.058 30.078 122.228 31.027 123.06 32.249C123.892 33.445 124.308 34.836 124.308 36.422V37.085C124.308 37.215 124.256 37.332 124.152 37.436C124.074 37.514 123.97 37.553 123.84 37.553H120.33C120.2 37.553 120.083 37.514 119.979 37.436C119.901 37.332 119.862 37.215 119.862 37.085V36.656C119.862 35.434 119.355 34.407 118.341 33.575C117.353 32.717 115.975 32.288 114.207 32.288C112.777 32.288 111.659 32.587 110.853 33.185C110.073 33.783 109.683 34.628 109.683 35.72C109.683 36.5 109.891 37.137 110.307 37.631C110.723 38.125 111.347 38.58 112.179 38.996C113.011 39.386 114.298 39.893 116.04 40.517C117.886 41.219 119.355 41.856 120.447 42.428C121.565 43 122.514 43.806 123.294 44.846C124.1 45.86 124.503 47.134 124.503 48.668C124.503 51.008 123.632 52.867 121.89 54.245C120.174 55.623 117.821 56.312 114.831 56.312ZM137.873 56.312C135.845 56.312 134.077 55.987 132.569 55.337C131.061 54.687 129.891 53.777 129.059 52.607C128.253 51.437 127.85 50.059 127.85 48.473V47.498C127.85 47.368 127.889 47.264 127.967 47.186C128.071 47.082 128.188 47.03 128.318 47.03H131.789C131.919 47.03 132.023 47.082 132.101 47.186C132.205 47.264 132.257 47.368 132.257 47.498V48.239C132.257 49.435 132.79 50.436 133.856 51.242C134.922 52.022 136.378 52.412 138.224 52.412C139.81 52.412 141.006 52.074 141.812 51.398C142.618 50.722 143.021 49.851 143.021 48.785C143.021 48.057 142.8 47.446 142.358 46.952C141.916 46.432 141.279 45.964 140.447 45.548C139.641 45.132 138.419 44.612 136.781 43.988C134.935 43.312 133.44 42.675 132.296 42.077C131.152 41.479 130.19 40.673 129.41 39.659C128.656 38.619 128.279 37.332 128.279 35.798C128.279 33.51 129.111 31.703 130.775 30.377C132.439 29.051 134.662 28.388 137.444 28.388C139.394 28.388 141.11 28.726 142.592 29.402C144.1 30.078 145.27 31.027 146.102 32.249C146.934 33.445 147.35 34.836 147.35 36.422V37.085C147.35 37.215 147.298 37.332 147.194 37.436C147.116 37.514 147.012 37.553 146.882 37.553H143.372C143.242 37.553 143.125 37.514 143.021 37.436C142.943 37.332 142.904 37.215 142.904 37.085V36.656C142.904 35.434 142.397 34.407 141.383 33.575C140.395 32.717 139.017 32.288 137.249 32.288C135.819 32.288 134.701 32.587 133.895 33.185C133.115 33.783 132.725 34.628 132.725 35.72C132.725 36.5 132.933 37.137 133.349 37.631C133.765 38.125 134.389 38.58 135.221 38.996C136.053 39.386 137.34 39.893 139.082 40.517C140.928 41.219 142.397 41.856 143.489 42.428C144.607 43 145.556 43.806 146.336 44.846C147.142 45.86 147.545 47.134 147.545 48.668C147.545 51.008 146.674 52.867 144.932 54.245C143.216 55.623 140.863 56.312 137.873 56.312Z" fill="#1CACFD"/>
<g opacity="0.8">
<path d="M11.1093 56.4816H15.3723C15.3326 55.9546 15.305 55.4267 15.2897 54.8983C14.838 40.2109 27.6713 30.5764 27.6713 30.5764C27.6713 30.5764 41.8484 40.9857 41.8484 52.1416C41.8484 53.7473 41.595 55.1847 41.1709 56.4816H45.3183C45.5496 55.2015 45.6689 53.8316 45.6763 52.3718C45.6763 36.4548 27.4454 21.1722 27.4454 21.1722C27.4454 21.1722 10.3382 34.4785 11.0156 54.8983C11.0364 55.4267 11.0676 55.9545 11.1093 56.4816Z" fill="#1CACFD"/>
<path d="M50.1817 56.4816H54.7201C54.838 55.2687 54.9005 54.051 54.9074 52.8322C54.9074 39.801 48.3696 16.8097 40.2731 6.9451C38.8301 8.39364 35.5474 15.4342 34.1925 17.1578C42.9775 27.5334 50.402 38.2458 50.402 53.0568C50.3983 54.247 50.3249 55.3886 50.1817 56.4816Z" fill="#1CACFD"/>
<path d="M20.6378 56.4816H25.1982C25.8338 51.1198 28.0495 49.775 32.964 46.7924C33.2882 46.5956 33.6242 46.3917 33.9722 46.179L27.6492 38.5321C27.6492 38.5321 20.467 44.1129 20.467 53.5228C20.4728 54.5114 20.5298 55.4991 20.6378 56.4816Z" fill="#1CACFD"/>
</g>
</svg>
